<svg width="134" height="134" viewBox="0 0 134 134" fill="none" xmlns="http://www.w3.org/2000/svg">
<mask id="path-1-inside-1_59_16" fill="white">
<path d="M0 29C0 12.9837 12.9837 0 29 0H105C121.016 0 134 12.9837 134 29V105C134 121.016 121.016 134 105 134H29C12.9837 134 0 121.016 0 105V29Z"/>
</mask>
<path d="M0 29C0 12.9837 12.9837 0 29 0H105C121.016 0 134 12.9837 134 29V105C134 121.016 121.016 134 105 134H29C12.9837 134 0 121.016 0 105V29Z" fill="#D8FFC6"/>
<path d="M-10 29C-10 7.46089 7.46089 -10 29 -10H105C126.539 -10 144 7.46089 144 29H124C124 18.5066 115.493 10 105 10H29C18.5066 10 10 18.5066 10 29H-10ZM144 112C144 133.539 126.539 151 105 151H29C7.46089 151 -10 133.539 -10 112L10 105C10 111.627 18.5066 117 29 117H105C115.493 117 124 111.627 124 105L144 112ZM29 151C7.46089 151 -10 133.539 -10 112V29C-10 7.46089 7.46089 -10 29 -10V10C18.5066 10 10 18.5066 10 29V105C10 111.627 18.5066 117 29 117V151ZM105 -10C126.539 -10 144 7.46089 144 29V112C144 133.539 126.539 151 105 151V117C115.493 117 124 111.627 124 105V29C124 18.5066 115.493 10 105 10V-10Z" fill="#0B0C0B" mask="url(#path-1-inside-1_59_16)"/>
<path d="M40.1429 47.8421L50.4512 40.7529C51.2506 40.2031 52.2859 40.9994 51.9596 41.9132L38 81" stroke="#0B0C0B" stroke-width="5" stroke-linecap="round"/>
<path d="M53 80L67.1282 77.3333L82 76" stroke="#0B0C0B" stroke-width="5" stroke-linecap="round"/>
<path d="M40 91L63.8718 88.3333L89 87" stroke="#0B0C0B" stroke-width="5" stroke-linecap="round"/>
<path d="M75.9199 44.5614C74.4199 65.5614 69.92 71.9278 60.8924 70.6939C51.3983 67.9278 52 56.5 69.92 37.0613" stroke="black" stroke-width="6" stroke-linecap="round"/>
<path d="M102.322 43.6845C100.822 64.6845 96.3222 71.0509 87.2946 69.817C77.8005 67.051 78.4022 55.6231 96.3222 36.1844" stroke="black" stroke-width="6" stroke-linecap="round"/>
</svg>
